<svg width="24" height="24" viewBox="0 0 24 24" fill="none" xmlns="http://www.w3.org/2000/svg" xmlns:xlink="http://www.w3.org/1999/xlink">
  <defs>
    <filter id="shadow" x="-50%" y="-50%" width="200%" height="200%">
      <feGaussianBlur in="SourceAlpha" stdDeviation="2" result="blur"/>
      <feOffset in="blur" dx="0" dy="0" result="offsetBlur"/>
      <feMerge>
        <feMergeNode in="offsetBlur"/>
        <feMergeNode in="SourceGraphic"/>
      </feMerge>
    </filter>
  </defs>
  <rect x="0" y="0" width="24" height="24" rx="12" fill="#D9D9D9" />
  <g filter="url(#shadow)">
    <path d="M12.5485 18.3L9.94851 15.7C9.63184 15.3833 9.56101 15.0208 9.73601 14.6125C9.91101 14.2042 10.2235 14 10.6735 14H15.8235C16.2735 14 16.586 14.2042 16.761 14.6125C16.936 15.0208 16.8652 15.3833 16.5485 15.7L13.9485 18.3C13.8485 18.4 13.7402 18.475 13.6235 18.525C13.5068 18.575 13.3818 18.6 13.2485 18.6C13.1152 18.6 12.9902 18.575 12.8735 18.525C12.7568 18.475 12.6485 18.4 12.5485 18.3Z" fill="#2A3647"/>
  </g>
</svg>
